<?xml version="1.0" encoding="utf-8"?>
<!-- Generator: Adobe Illustrator 24.1.0, SVG Export Plug-In . SVG Version: 6.00 Build 0)  -->
<svg version="1.1" id="twitter" xmlns="http://www.w3.org/2000/svg" xmlns:xlink="http://www.w3.org/1999/xlink" x="0px" y="0px"
	 viewBox="0 0 45.4 45.4" style="enable-background:new 0 0 45.4 45.4;" xml:space="preserve">

<path fill="#FFD970" d="M40.1,10.1c2-1.1,3.3-2.8,4-5c-1.8,1-3.7,1.7-5.9,2.2c-1.8-1.9-4-2.9-6.8-2.9c-2.6,0-4.8,0.9-6.6,2.7
	c-1.8,1.8-2.7,4-2.7,6.6c0,0.5,0.1,1.1,0.2,2.1c-7.8-0.4-14.2-3.6-19.2-9.6C2.3,7.4,2,8.9,2,10.7c0,3.4,1.3,5.9,4,7.8
	c-1.2,0-2.6-0.4-4.1-1.3v0.2c0,2.2,0.7,4.2,2.1,5.9c1.4,1.7,3.2,2.8,5.4,3.1c-0.8,0.2-1.7,0.3-2.5,0.3c-0.4,0-1-0.1-1.7-0.2
	c0.6,1.8,1.7,3.3,3.3,4.5c1.6,1.2,3.4,1.8,5.4,1.9c-3.5,2.7-7.3,4-11.6,4c-1,0-1.7,0-2.2-0.1C4.3,39.6,9.1,41,14.3,41
	c8.1,0,14.5-2.7,19.3-8.1c4.8-5.4,7.2-11.5,7.2-18.2v-1.1c1.6-1.1,3.1-2.7,4.6-4.8C43.6,9.4,41.8,9.9,40.1,10.1z"/>
</svg>
